<!-- Generator: Adobe Illustrator 21.1.0, SVG Export Plug-In  -->
<svg version="1.1"
	 xmlns="http://www.w3.org/2000/svg" xmlns:xlink="http://www.w3.org/1999/xlink" xmlns:a="http://ns.adobe.com/AdobeSVGViewerExtensions/3.0/"
	 x="0px" y="0px" width="500px" height="500px" viewBox="0 0 500 500" style="enable-background:new 0 0 500 500;"
	 xml:space="preserve">
<style type="text/css">
	.st0{fill:url(#SVGID_1_);}
	.st1{fill:url(#SVGID_2_);}
	.st2{fill:url(#SVGID_3_);}
	.st3{fill:url(#SVGID_4_);}
	.st4{fill:url(#SVGID_5_);}
	.st5{fill:url(#SVGID_6_);}
</style>
<defs>
</defs>
<g>
	<linearGradient id="SVGID_1_" gradientUnits="userSpaceOnUse" x1="73.2233" y1="426.7767" x2="426.7767" y2="73.2233">
		<stop  offset="0" style="stop-color:#D51130"/>
		<stop  offset="1" style="stop-color:#7F7F7F"/>
	</linearGradient>
	<path class="st0" d="M250,0C111.929,0,0,111.929,0,250s111.929,250,250,250s250-111.929,250-250S388.071,0,250,0z M250,475
		C125.736,475,25,374.264,25,250S125.736,25,250,25s225,100.736,225,225S374.264,475,250,475z"/>
	<g>
		<linearGradient id="SVGID_2_" gradientUnits="userSpaceOnUse" x1="89.9152" y1="341.9012" x2="243.2505" y2="188.5659">
			<stop  offset="0" style="stop-color:#D51130"/>
			<stop  offset="1" style="stop-color:#7F7F7F"/>
		</linearGradient>
		<path class="st1" d="M141.717,321.886l35.489-34.371c15.928-14.996,27.315-26.896,34.162-35.699
			c6.846-8.802,11.922-17.347,15.23-25.639c3.305-8.289,4.96-17.046,4.96-26.267c0-16.766-5.729-30.11-17.186-40.03
			c-11.457-9.92-26.687-14.88-45.689-14.88c-12.11,0-23.521,2.004-34.232,6.008c-10.713,4.006-21.751,10.806-33.114,20.399
			l17.745,21.657c9.593-7.545,18.046-12.76,25.359-15.649c7.311-2.886,14.88-4.331,22.705-4.331c9.78,0,17.441,2.655,22.984,7.964
			c5.54,5.309,8.313,12.575,8.313,21.796c0,6.707-1.166,12.994-3.493,18.862c-2.33,5.868-6.032,12.134-11.108,18.792
			c-5.078,6.661-15.393,17.954-30.948,33.882l-52.675,52.954v24.87h138.463v-28.922h-96.966V321.886z"/>
		<linearGradient id="SVGID_3_" gradientUnits="userSpaceOnUse" x1="247.5166" y1="324.1533" x2="404.6323" y2="167.0375">
			<stop  offset="0" style="stop-color:#D51130"/>
			<stop  offset="1" style="stop-color:#7F7F7F"/>
		</linearGradient>
		<path class="st2" d="M381.757,240.988c-12.016-10.898-28.318-16.347-48.902-16.347c-6.801,0-12.553,0.374-17.255,1.118
			c-4.705,0.747-8.687,1.397-11.946,1.956l4.611-50.579h77.265v-29.202H279.341l-7.824,99.76l14.671,8.663
			c4.842-1.118,10.479-2.118,16.906-3.004c6.427-0.884,11.828-1.327,16.208-1.327c31.109,0,46.667,12.204,46.667,36.607
			c0,12.763-3.867,22.449-11.597,29.062c-7.733,6.615-19.002,9.92-33.812,9.92c-8.383,0-17.465-1.163-27.245-3.493
			c-9.78-2.327-18.443-5.634-25.988-9.92v29.76c13.04,7.36,30.97,11.038,53.792,11.038c25.15,0,44.547-6.123,58.194-18.373
			c13.644-12.248,20.469-29.271,20.469-51.068C399.78,266.745,393.772,251.886,381.757,240.988z"/>
	</g>
</g>
</svg>