<!-- Generator: Adobe Illustrator 21.1.0, SVG Export Plug-In  -->
<svg version="1.1"
	 xmlns="http://www.w3.org/2000/svg" xmlns:xlink="http://www.w3.org/1999/xlink" xmlns:a="http://ns.adobe.com/AdobeSVGViewerExtensions/3.0/"
	 x="0px" y="0px" width="414.658px" height="512.001px" viewBox="0 0 414.658 512.001"
	 style="enable-background:new 0 0 414.658 512.001;" xml:space="preserve">
<style type="text/css">
	.st0{fill:url(#SVGID_1_);}
	.st1{fill:url(#SVGID_2_);}
	.st2{fill:url(#SVGID_3_);}
	.st3{fill:url(#SVGID_4_);}
</style>
<defs>
</defs>
<g>
	<linearGradient id="SVGID_1_" gradientUnits="userSpaceOnUse" x1="33.5236" y1="382.0294" x2="381.1362" y2="34.4168">
		<stop  offset="0" style="stop-color:#D51130"/>
		<stop  offset="1" style="stop-color:#7F7F7F"/>
	</linearGradient>
	<path class="st0" d="M393.764,52.012L227.111,2.863c-12.938-3.817-26.621-3.817-39.563,0L20.897,52.011
		C8.593,55.639,0,67.131,0,79.959v138.014c0,63.872,19.013,125.375,54.984,177.86c35.118,51.243,83.991,90.665,141.33,114
		c3.552,1.445,7.284,2.168,11.016,2.168s7.464-0.724,11.015-2.168c57.339-23.335,106.212-62.755,141.33-114
		c35.97-52.486,54.983-113.988,54.983-177.86V79.96C414.66,67.132,406.067,55.639,393.764,52.012z M391.35,217.972
		c0,59.147-17.602,116.093-50.901,164.681c-32.53,47.466-77.79,83.978-130.889,105.587c-1.438,0.585-3.021,0.585-4.459,0
		c-53.099-21.609-98.36-58.12-130.889-105.587C40.913,334.065,23.311,277.12,23.311,217.972V79.959c0-2.565,1.719-4.863,4.18-5.589
		l166.652-49.149c4.314-1.273,8.751-1.908,13.188-1.908c4.436,0,8.873,0.636,13.187,1.909L387.172,74.37
		c2.459,0.725,4.178,3.023,4.178,5.589V217.972z"/>
	<linearGradient id="SVGID_2_" gradientUnits="userSpaceOnUse" x1="84.4524" y1="340.0622" x2="330.2097" y2="94.3049">
		<stop  offset="0" style="stop-color:#D51130"/>
		<stop  offset="1" style="stop-color:#7F7F7F"/>
	</linearGradient>
	<path class="st1" d="M336.48,103.555l-124.206-36.63c-3.234-0.953-6.652-0.955-9.888,0l-124.203,36.63
		c-7.382,2.178-12.539,9.074-12.539,16.77v97.647c0,51.598,15.608,101.088,45.134,143.122c22.892,32.593,53.481,59.502,88.458,77.82
		c2.534,1.328,5.314,1.991,8.095,1.991c2.78,0,5.56-0.663,8.095-1.991c34.976-18.317,65.565-45.228,88.458-77.82
		c29.526-42.033,45.134-91.524,45.134-143.122v-97.647C349.017,112.627,343.861,105.732,336.48,103.555z M325.708,217.972
		c0,46.777-14.142,91.635-40.897,129.723c-20.172,28.717-46.912,52.562-77.48,69.12c-30.568-16.559-57.309-40.403-77.48-69.12
		c-26.755-38.088-40.897-82.946-40.897-129.723v-93.29L207.331,89.77l118.377,34.912V217.972z"/>
</g>
</svg>