<!-- Generator: Adobe Illustrator 21.1.0, SVG Export Plug-In  -->
<svg version="1.1"
	 xmlns="http://www.w3.org/2000/svg" xmlns:xlink="http://www.w3.org/1999/xlink" xmlns:a="http://ns.adobe.com/AdobeSVGViewerExtensions/3.0/"
	 x="0px" y="0px" width="512px" height="511.914px" viewBox="0 0 512 511.914" style="enable-background:new 0 0 512 511.914;"
	 xml:space="preserve">
<style type="text/css">
	.st0{fill:url(#SVGID_1_);}
	.st1{fill:url(#SVGID_2_);}
	.st2{fill:url(#SVGID_3_);}
	.st3{fill:url(#SVGID_4_);}
	.st4{fill:url(#SVGID_5_);}
	.st5{fill:url(#SVGID_6_);}
</style>
<defs>
</defs>
<g>
	<linearGradient id="SVGID_1_" gradientUnits="userSpaceOnUse" x1="0" y1="255.957" x2="512" y2="255.957">
		<stop  offset="0" style="stop-color:#D51130"/>
		<stop  offset="1" style="stop-color:#7F7F7F"/>
	</linearGradient>
	<path class="st0" d="M457.602,54.312c-72.417-72.416-190.245-72.416-262.661,0c-35.081,35.079-54.399,81.721-54.399,131.331
		c0,45.193,16.039,87.917,45.413,121.688l-22.119,22.119l-22.542-22.542c-2.47-2.47-5.821-3.858-9.314-3.858
		s-6.844,1.388-9.314,3.858L17.055,412.52C6.057,423.516,0,438.137,0,453.69c0,15.552,6.057,30.174,17.053,41.17
		c10.998,10.998,25.619,17.054,41.17,17.054c15.551,0,30.174-6.057,41.17-17.053l105.612-105.61c2.47-2.47,3.858-5.821,3.858-9.314
		s-1.388-6.844-3.858-9.314l-22.542-22.542l22.126-22.126c34.793,30.215,78.234,45.331,121.682,45.331
		c47.561,0,95.123-18.104,131.331-54.311C492.68,281.895,512,235.255,512,185.645C512,136.032,492.682,89.391,457.602,54.312z
		 M80.765,476.232c-6.021,6.021-14.026,9.337-22.542,9.337c-8.515,0-16.521-3.317-22.542-9.338c-6.02-6.02-9.337-14.026-9.337-22.54
		c0-8.514,3.317-16.521,9.338-22.542l58.934-58.934l45.084,45.082L80.765,476.232z M158.33,398.668l-45.084-45.084l18.734-18.734
		l45.084,45.085L158.33,398.668z M438.973,298.345c-62.144,62.146-163.259,62.146-225.403,0
		c-30.104-30.104-46.683-70.128-46.683-112.702c0-42.574,16.579-82.598,46.683-112.701c31.072-31.072,71.887-46.609,112.702-46.609
		c40.814,0,81.63,15.535,112.702,46.609c30.104,30.103,46.683,70.128,46.683,112.701S469.077,268.241,438.973,298.345z"/>
	<linearGradient id="SVGID_2_" gradientUnits="userSpaceOnUse" x1="197.6901" y1="185.6411" x2="454.8519" y2="185.6411">
		<stop  offset="0" style="stop-color:#D51130"/>
		<stop  offset="1" style="stop-color:#7F7F7F"/>
	</linearGradient>
	<path class="st1" d="M417.234,94.678c-50.158-50.156-131.769-50.158-181.927,0c-50.156,50.158-50.156,131.769,0.001,181.927
		c25.079,25.077,58.02,37.617,90.963,37.617s65.885-12.54,90.964-37.617v-0.001C467.391,226.448,467.391,144.836,417.234,94.678z
		 M398.605,257.977c-39.886,39.886-104.783,39.886-144.669,0.001c-39.886-39.886-39.886-104.784-0.001-144.67
		c19.945-19.946,46.136-29.914,72.336-29.914c26.193,0,52.394,9.974,72.334,29.914C438.491,153.193,438.491,218.091,398.605,257.977
		z"/>
	<linearGradient id="SVGID_3_" gradientUnits="userSpaceOnUse" x1="273.363" y1="137.6951" x2="379.179" y2="137.6951">
		<stop  offset="0" style="stop-color:#D51130"/>
		<stop  offset="1" style="stop-color:#7F7F7F"/>
	</linearGradient>
	<path class="st2" d="M277.221,136.593c-5.144,5.144-5.144,13.484,0,18.63c5.144,5.144,13.484,5.144,18.63,0
		c16.772-16.774,44.068-16.774,60.842,0c2.573,2.573,5.943,3.858,9.314,3.858c3.371,0,6.743-1.286,9.314-3.858
		c5.144-5.144,5.144-13.485,0-18.63C348.273,109.548,304.268,109.548,277.221,136.593z"/>
</g>
</svg>