<!-- Generator: Adobe Illustrator 21.1.0, SVG Export Plug-In  -->
<svg version="1.1"
	 xmlns="http://www.w3.org/2000/svg" xmlns:xlink="http://www.w3.org/1999/xlink" xmlns:a="http://ns.adobe.com/AdobeSVGViewerExtensions/3.0/"
	 x="0px" y="0px" width="2847.601px" height="469.251px" viewBox="0 0 2847.601 469.251"
	 style="enable-background:new 0 0 2847.601 469.251;" xml:space="preserve">
<style type="text/css">
	.st0{fill:#BDBDBC;}
	.st1{fill:#D51130;}
	.st2{font-family:'LucidaSans';}
	.st3{font-size:116px;}
	.st4{letter-spacing:10;}
	.st5{font-size:198px;}
	.st6{letter-spacing:5;}
	.st7{letter-spacing:59;}
</style>
<defs>
</defs>
<g>
	<g>
		<polygon class="st0" points="351.939,351.938 117.313,351.938 117.313,117.312 241.229,117.312 241.229,0 0,0 0,469.251 
			469.251,469.251 469.251,228.023 351.939,228.023 		"/>
		<polygon class="st1" points="281.535,0 281.535,117.313 351.938,117.313 351.938,187.716 469.251,187.716 469.251,0 		"/>
	</g>
	<g>
		<path class="st0" d="M687.397,396.275v-83.828h11.895v83.828H687.397z"/>
		<path class="st0" d="M751.193,396.275v-74.936h-29.736v-8.893h71.367v8.893h-29.736v74.936H751.193z"/>
		<path class="st0" d="M810.23,365.519v-6.967h46.105v6.967H810.23z"/>
		<path class="st0" d="M878.444,394.689v-11.786c6.76,3.1,11.697,4.97,14.812,5.612c3.114,0.643,6.001,0.963,8.659,0.963
			c4.823,0,8.631-1.312,11.422-3.937c2.792-2.624,4.188-5.768,4.188-9.431c0-2.756-0.73-5.305-2.188-7.646
			c-1.499-2.303-5.188-5.116-11.065-8.439l-5.804-3.342c-7.738-4.38-12.934-8.383-15.589-12.008s-3.982-7.646-3.982-12.064
			c0-3.965,1.052-7.684,3.158-11.158c2.106-3.474,4.934-6.192,8.482-8.156c3.548-1.963,8.016-2.945,13.406-2.945
			c6.488,0,13.338,1.076,20.549,3.229v10.88c-6.272-2.457-10.577-3.94-12.915-4.45s-4.666-0.766-6.984-0.766
			c-4.866,0-8.468,1.266-10.806,3.795c-2.338,2.53-3.506,5.117-3.506,7.76c0,1.812,0.553,3.653,1.659,5.522s2.594,3.475,4.463,4.814
			c1.869,1.341,4.435,2.937,7.697,4.786l6.03,3.398c7.812,4.418,13.028,8.459,15.646,12.121c2.616,3.701,3.926,7.949,3.926,12.744
			c0,6.533-2.494,12.197-7.482,16.992c-4.987,4.796-12.336,7.193-22.044,7.193c-2.997,0-5.899-0.198-8.705-0.595
			C888.665,397.379,884.322,396.35,878.444,394.689z"/>
		<path class="st0" d="M974.582,396.275v-35.004l-27.98-48.824h13.596l21.748,37.836l23.396-37.836h11.099l-29.963,48.598v35.23
			H974.582z"/>
		<path class="st0" d="M1034.072,394.689v-11.786c6.76,3.1,11.697,4.97,14.812,5.612c3.114,0.643,6.001,0.963,8.66,0.963
			c4.823,0,8.631-1.312,11.422-3.937c2.791-2.624,4.188-5.768,4.188-9.431c0-2.756-0.729-5.305-2.188-7.646
			c-1.498-2.303-5.187-5.116-11.065-8.439l-5.804-3.342c-7.737-4.38-12.934-8.383-15.589-12.008
			c-2.654-3.625-3.982-7.646-3.982-12.064c0-3.965,1.053-7.684,3.159-11.158c2.106-3.474,4.933-6.192,8.481-8.156
			c3.548-1.963,8.017-2.945,13.406-2.945c6.489,0,13.338,1.076,20.549,3.229v10.88c-6.271-2.457-10.576-3.94-12.915-4.45
			c-2.338-0.51-4.665-0.766-6.984-0.766c-4.865,0-8.468,1.266-10.805,3.795c-2.339,2.53-3.507,5.117-3.507,7.76
			c0,1.812,0.554,3.653,1.659,5.522c1.106,1.869,2.595,3.475,4.464,4.814c1.869,1.341,4.435,2.937,7.696,4.786l6.031,3.398
			c7.812,4.418,13.027,8.459,15.646,12.121c2.617,3.701,3.926,7.949,3.926,12.744c0,6.533-2.494,12.197-7.481,16.992
			c-4.988,4.796-12.336,7.193-22.045,7.193c-2.997,0-5.898-0.198-8.705-0.595S1039.951,396.35,1034.072,394.689z"/>
		<path class="st0" d="M1131.965,396.275v-74.936h-29.736v-8.893h71.367v8.893h-29.736v74.936H1131.965z"/>
		<path class="st0" d="M1195.874,396.275v-83.828h46.955v8.893h-35.061v26.904h29.396v8.779h-29.396v30.359h37.496v8.893H1195.874z"
			/>
		<path class="st0" d="M1269.185,396.275v-83.828h16.499l23.291,64.854l23.972-64.854h14.686v83.828h-11.102v-68.195l-23.193,62.588
			h-11.421l-22.479-62.758v68.365H1269.185z"/>
		<path class="st0" d="M1379.539,396.275v-83.828h11.895v35.344h39.875v-35.344h11.895v83.828h-11.895v-39.592h-39.875v39.592
			H1379.539z"/>
		<path class="st0" d="M1465.368,396.275l33.299-83.828h11.739l32.786,83.828h-12.857l-9.149-23.223h-35.564l-9.207,23.223H1465.368
			z M1489.146,364.159h28.535l-14.223-36.097L1489.146,364.159z"/>
		<path class="st0" d="M1565.017,312.447h11.895v52.902c0,9.214,1.718,15.539,5.154,18.975c3.436,3.437,8.231,5.154,14.387,5.154
			c3.889,0,7.174-0.67,9.855-2.011c2.681-1.34,4.758-3.521,6.23-6.542c1.473-3.021,2.209-8.08,2.209-15.18v-53.299h10.422v53.129
			c0,9.101-1.124,15.661-3.37,19.683c-2.247,4.021-5.419,7.213-9.516,9.572c-4.098,2.359-9.525,3.54-16.284,3.54
			c-7.213,0-13.047-1.228-17.502-3.682c-4.456-2.454-7.816-5.814-10.082-10.082c-2.266-4.267-3.398-10.724-3.398-19.371V312.447z"/>
		<path class="st0" d="M1651.412,394.689v-11.786c6.76,3.1,11.697,4.97,14.812,5.612c3.114,0.643,6.001,0.963,8.66,0.963
			c4.823,0,8.63-1.312,11.422-3.937c2.791-2.624,4.188-5.768,4.188-9.431c0-2.756-0.73-5.305-2.188-7.646
			c-1.498-2.303-5.188-5.116-11.065-8.439l-5.804-3.342c-7.738-4.38-12.934-8.383-15.589-12.008s-3.982-7.646-3.982-12.064
			c0-3.965,1.053-7.684,3.158-11.158c2.106-3.474,4.934-6.192,8.482-8.156c3.548-1.963,8.017-2.945,13.406-2.945
			c6.488,0,13.338,1.076,20.549,3.229v10.88c-6.272-2.457-10.577-3.94-12.915-4.45s-4.666-0.766-6.984-0.766
			c-4.866,0-8.468,1.266-10.805,3.795c-2.339,2.53-3.507,5.117-3.507,7.76c0,1.812,0.553,3.653,1.659,5.522s2.594,3.475,4.463,4.814
			c1.869,1.341,4.436,2.937,7.697,4.786l6.03,3.398c7.813,4.418,13.028,8.459,15.646,12.121c2.617,3.701,3.926,7.949,3.926,12.744
			c0,6.533-2.494,12.197-7.481,16.992c-4.988,4.796-12.337,7.193-22.045,7.193c-2.997,0-5.898-0.198-8.705-0.595
			C1661.632,397.379,1657.29,396.35,1651.412,394.689z"/>
	</g>
	<g>
		<path class="st1" d="M687.05,210.886v-20.117c11.538,5.29,19.966,8.482,25.283,9.579c5.316,1.097,10.244,1.644,14.781,1.644
			c8.233,0,14.732-2.239,19.496-6.719c4.765-4.479,7.148-9.845,7.148-16.097c0-4.704-1.246-9.055-3.736-13.052
			c-2.558-3.931-8.854-8.733-18.887-14.405l-9.907-5.704c-13.207-7.476-22.076-14.309-26.608-20.496s-6.798-13.052-6.798-20.593
			c0-6.768,1.796-13.115,5.392-19.046c3.595-5.929,8.42-10.57,14.478-13.922c6.056-3.351,13.683-5.027,22.883-5.027
			c11.076,0,22.767,1.837,35.075,5.511v18.57c-10.706-4.193-18.053-6.725-22.044-7.595s-7.964-1.307-11.922-1.307
			c-8.305,0-14.454,2.16-18.443,6.478c-3.991,4.319-5.985,8.734-5.985,13.245c0,3.094,0.944,6.236,2.833,9.426
			s4.428,5.931,7.618,8.218c3.19,2.289,7.569,5.012,13.138,8.169l10.293,5.801c13.335,7.541,22.238,14.438,26.706,20.689
			c4.467,6.317,6.701,13.568,6.701,21.753c0,11.151-4.257,20.819-12.771,29.004c-8.514,8.186-21.056,12.278-37.628,12.278
			c-5.115,0-10.068-0.338-14.858-1.015C704.496,215.478,697.084,213.721,687.05,210.886z"/>
		<path class="st1" d="M915.837,206.245c-5.866,3.03-11.103,5.269-15.71,6.719c-4.609,1.45-9.395,2.514-14.357,3.19
			c-4.964,0.677-10.345,1.015-16.146,1.015c-24.106,0-41.75-7.121-52.932-21.366c-11.183-14.244-16.774-32.129-16.774-53.657
			c0-21.978,5.801-40.009,17.402-54.092c11.602-14.082,29.391-21.125,53.367-21.125c12.762,0,27.747,2.095,44.956,6.284V92.26
			c-14.438-4.962-24.38-7.895-29.826-8.798c-5.447-0.902-10.62-1.354-15.517-1.354c-17.146,0-29.569,5.817-37.27,17.451
			c-7.703,11.635-11.553,25.895-11.553,42.781c0,17.596,4.431,31.824,13.293,42.684c8.861,10.861,21.415,16.291,37.657,16.291
			c4.511,0,9.006-0.402,13.487-1.208c4.479-0.805,8.943-1.997,13.39-3.577c4.447-1.579,9.958-4.141,16.532-7.686V206.245z"/>
		<path class="st1" d="M951.264,213.593V70.507h20.303v60.328h68.062V70.507h20.303v143.086h-20.303v-67.579h-68.062v67.579H951.264
			z"/>
		<path class="st1" d="M1121.435,213.593l-37.001-143.086h19.446l29.425,113.019l26.931-113.019h19.614l25.481,111.472
			l31.601-111.472h16.498l-40.18,143.086h-20.215l-25.215-110.312l-26.386,110.312H1121.435z"/>
		<path class="st1" d="M1261.208,213.593l56.837-143.086h20.039l55.962,143.086h-21.946l-15.617-39.639h-60.706l-15.715,39.639
			H1261.208z M1301.795,158.776h48.707l-24.277-61.614L1301.795,158.776z"/>
		<path class="st1" d="M1420.578,213.593V70.507h43.312c16.049,0,27.134,3.594,33.258,10.78c6.122,7.188,9.185,15.42,9.185,24.702
			c0,5.414-1.08,10.763-3.238,16.047c-2.161,5.286-5.238,9.991-9.233,14.115c-3.995,4.125-9.441,7.606-16.336,10.441l47.798,67
			h-24.936l-40.751-60.521h-18.949v60.521H1420.578z M1440.687,137.893h6.574c15.019,0,25.153-3.125,30.405-9.378
			c5.253-6.251,7.88-13.115,7.88-20.593c0-4.447-0.983-8.33-2.948-11.65c-1.968-3.319-5.027-5.913-9.186-7.783
			c-4.156-1.869-10.812-2.804-19.964-2.804h-12.762V137.893z"/>
		<path class="st1" d="M1542.437,213.593v-16.242l76.857-111.665h-72.12V70.507h96.486v15.179l-76.86,111.665h76.86v16.242H1542.437
			z"/>
		<path class="st1" d="M1815.405,213.593l-7.129-8.524c-10.619,8.068-23.02,12.102-37.202,12.102c-9.454,0-18.18-1.885-26.177-5.656
			s-14.23-9.33-18.699-16.677c-4.468-7.348-6.702-15.275-6.702-23.783c0-8.958,2.577-17.579,7.734-25.862
			c5.155-8.281,14.212-14.614,27.167-18.998c-6.446-11.665-9.668-21.366-9.668-29.101c0-5.349,1.514-10.36,4.544-15.034
			c3.028-4.672,7.203-8.363,12.52-11.07c5.318-2.707,11.167-4.061,17.548-4.061c9.345,0,17.016,2.804,23.01,8.408
			s8.991,12.434,8.991,20.487c0,14.303-10.456,26.738-31.366,37.303c9.691,17.042,20.978,32.953,33.857,47.734
			c2.417-3.483,4.163-6.692,5.241-9.629c1.079-2.935,1.961-6.822,2.647-11.662c0.686-4.838,1.028-9.87,1.028-15.097l-0.097-6.968
			h19.046c0,21.144-6.356,39.388-19.068,54.73c5.835,7.344,12.482,14.464,19.938,21.357H1815.405z M1799.888,194.067
			c-9.037-11.021-16.205-20.463-21.504-28.327c-5.3-7.864-11.134-17.274-17.505-28.232c-8.704,3.48-14.604,7.719-17.697,12.713
			c-3.094,4.996-4.641,10.361-4.641,16.097c0,6.188,1.636,12.277,4.909,18.271c3.272,5.994,7.519,10.538,12.736,13.632
			s11.196,4.641,17.938,4.641C1783.133,202.862,1791.721,199.931,1799.888,194.067z M1772.96,121.071
			c13.663-6.251,20.496-14.565,20.496-24.943c0-4.254-1.322-7.798-3.964-10.635c-2.644-2.835-6.284-4.254-10.925-4.254
			c-5.286,0-9.057,1.612-11.312,4.834c-2.257,3.224-3.384,6.607-3.384,10.151C1763.872,102.798,1766.9,111.081,1772.96,121.071z"/>
		<path class="st1" d="M1928.266,213.593V70.507h43.312c16.049,0,27.134,3.594,33.258,10.78c6.122,7.188,9.185,15.42,9.185,24.702
			c0,5.414-1.08,10.763-3.238,16.047c-2.161,5.286-5.238,9.991-9.233,14.115c-3.995,4.125-9.441,7.606-16.336,10.441l47.798,67
			h-24.936l-40.751-60.521h-18.949v60.521H1928.266z M1948.376,137.893h6.574c15.019,0,25.153-3.125,30.405-9.378
			c5.253-6.251,7.88-13.115,7.88-20.593c0-4.447-0.983-8.33-2.948-11.65c-1.968-3.319-5.027-5.913-9.186-7.783
			c-4.156-1.869-10.812-2.804-19.964-2.804h-12.762V137.893z"/>
		<path class="st1" d="M2117.898,217.17c-13.535,0-25.315-3.03-35.336-9.088c-10.023-6.058-17.789-14.904-23.301-26.539
			c-5.51-11.633-8.266-24.798-8.266-39.494c0-14.179,2.625-27.085,7.879-38.72c5.253-11.633,13.004-20.608,23.252-26.925
			c10.248-6.316,22.171-9.475,35.771-9.475c13.599,0,25.523,3.159,35.771,9.475c10.248,6.317,17.997,15.292,23.252,26.925
			c5.252,11.635,7.879,24.542,7.879,38.72c0,14.115-2.596,26.958-7.783,38.527c-5.188,11.57-12.857,20.561-23.01,26.974
			C2143.857,213.963,2131.82,217.17,2117.898,217.17z M2117.898,201.992c14.437,0,25.604-5.381,33.5-16.146
			c7.894-10.763,11.843-25.427,11.843-43.989c0-18.498-3.98-33.08-11.94-43.748c-7.961-10.667-19.094-16-33.402-16
			s-25.443,5.334-33.402,16c-7.962,10.668-11.94,25.25-11.94,43.748c0,18.562,3.947,33.226,11.843,43.989
			C2092.292,196.611,2103.459,201.992,2117.898,201.992z"/>
		<path class="st1" d="M2219.164,213.593V70.507h20.303v60.328h68.062V70.507h20.303v143.086h-20.303v-67.579h-68.062v67.579
			H2219.164z"/>
		<path class="st1" d="M2370.607,213.593V70.507h20.303v127.907h63.519v15.179H2370.607z"/>
		<path class="st1" d="M2540.612,217.17c-13.535,0-25.315-3.03-35.336-9.088c-10.023-6.058-17.789-14.904-23.301-26.539
			c-5.51-11.633-8.266-24.798-8.266-39.494c0-14.179,2.625-27.085,7.879-38.72c5.253-11.633,13.004-20.608,23.252-26.925
			c10.248-6.316,22.171-9.475,35.771-9.475c13.599,0,25.523,3.159,35.771,9.475c10.248,6.317,17.997,15.292,23.252,26.925
			c5.252,11.635,7.879,24.542,7.879,38.72c0,14.115-2.596,26.958-7.783,38.527c-5.188,11.57-12.857,20.561-23.01,26.974
			C2566.571,213.963,2554.534,217.17,2540.612,217.17z M2540.612,201.992c14.437,0,25.604-5.381,33.5-16.146
			c7.894-10.763,11.843-25.427,11.843-43.989c0-18.498-3.98-33.08-11.94-43.748c-7.961-10.667-19.094-16-33.402-16
			s-25.443,5.334-33.402,16c-7.962,10.668-11.94,25.25-11.94,43.748c0,18.562,3.947,33.226,11.843,43.989
			C2515.006,196.611,2526.173,201.992,2540.612,201.992z"/>
		<path class="st1" d="M2641.878,213.593V70.507h81.211v15.179h-60.908v47.953h51.24v14.985h-51.24v64.969H2641.878z"/>
		<path class="st1" d="M2753.973,213.593V70.507h81.211v15.179h-60.908v47.953h51.24v14.985h-51.24v64.969H2753.973z"/>
	</g>
</g>
</svg>